v 485.0484009 25.39999962 -110.5311584
vn 0.1494293958 0.6666666865 -0.7302235365
v 491.622406 25.39999962 -85.99664307
vn 0.8943375945 0.4082483053 0.1830126494
v 485.0484009 5.349306775e-07 -110.5311584
vn 0.6830127239 -0.4082482457 -0.6056624055
v 491.622406 5.349306775e-07 -85.99664307
vn 0.4945213497 -0.6666666865 0.5576774478
v 460.5138855 25.39999962 -103.9571533
vn -0.8943375945 0.4082483351 -0.1830126196
v 460.5138855 5.349306775e-07 -103.9571533
vn -0.4945212305 -0.6666667461 -0.5576775074
v 467.0878906 25.39999962 -79.42263794
vn -0.1494292915 0.6666666865 0.7302235365
v 467.0878906 5.349306775e-07 -79.42263794
vn -0.6830127835 -0.4082483351 0.6056623459
v 501.2720947 25.39999962 -12.69999886
vn 0.3333334029 0.6666666269 -0.6666666269
v 501.2720947 25.39999962 12.69999886
vn 0.8164966702 0.4082482457 0.4082482159
v 501.2720947 5.349306775e-07 -12.69999886
vn 0.8164966702 -0.4082482457 -0.4082482159
v 501.2720947 5.349306775e-07 12.69999886
vn 0.3333334029 -0.6666666269 0.6666666269
v 475.8721008 25.39999962 -12.69999886
vn -0.8164966702 0.4082482457 -0.4082482159
v 475.8721008 5.349306775e-07 -12.69999886
vn -0.3333334029 -0.6666666269 -0.6666666269
v 475.8721008 25.39999962 12.69999886
vn -0.3333334029 0.6666666269 0.6666666269
v 475.8721008 5.349306775e-07 12.69999886
vn -0.8164966702 -0.4082482457 0.4082482159
v 444.0569763 25.39999962 -200.8298035
vn -0.0446581766 0.6666665077 -0.7440171242
v 456.756958 25.39999962 -178.8327637
vn 0.911231041 0.4082481265 -0.05469441786
v 444.0569763 5.349306775e-07 -200.8298035
vn 0.5029826164 -0.4082484543 -0.7618016005
v 456.756958 5.349306775e-07 -178.8327637
vn 0.6220083237 -0.6666667461 0.4106837213
v 422.059906 25.39999962 -188.1298065
vn -0.9112307429 0.4082486629 0.0546948947
v 422.059906 5.349306775e-07 -188.1298065
vn -0.6220082641 -0.6666666269 -0.4106840491
v 434.7599182 25.39999962 -166.1327667
vn 0.04465818778 0.6666666865 0.7440169454
v 434.7599182 5.349306775e-07 -166.1327667
vn -0.5029824376 -0.4082481563 0.7618018985
v 491.622406 25.39999962 85.99664307
vn 0.4945213497 0.6666666865 -0.5576774478
v 485.0484009 25.39999962 110.5311584
vn 0.6830127239 0.4082482457 0.6056624055
v 491.622406 5.349306775e-07 85.99664307
vn 0.8943375945 -0.4082483053 -0.1830126494
v 485.0484009 5.349306775e-07 110.5311584
vn 0.1494293958 -0.6666666865 0.7302235365
v 467.0878906 25.39999962 79.42263794
vn -0.6830127835 0.4082483351 -0.6056623459
v 467.0878906 5.349306775e-07 79.42263794
vn -0.1494292915 -0.6666666865 -0.7302235365
v 460.5138855 25.39999962 103.9571533
vn -0.4945212305 0.6666667461 0.5576775074
v 460.5138855 5.349306775e-07 103.9571533
vn -0.8943375945 -0.4082483351 0.1830126196
v 456.756958 25.39999962 178.8327637
vn 0.6220083237 0.6666667461 -0.4106837213
v 444.0569763 25.39999962 200.8298035
vn 0.5029826164 0.4082484543 0.7618016005
v 456.756958 5.349306775e-07 178.8327637
vn 0.911231041 -0.4082481265 0.05469441786
v 444.0569763 5.349306775e-07 200.8298035
vn -0.0446581766 -0.6666665077 0.7440171242
v 434.7599182 25.39999962 166.1327667
vn -0.5029824376 0.4082481563 -0.7618018985
v 434.7599182 5.349306775e-07 166.1327667
vn 0.04465818778 -0.6666666865 -0.7440169454
v 422.059906 25.39999962 188.1298065
vn -0.6220082641 0.6666666269 0.4106840491
v 422.059906 5.349306775e-07 188.1298065
vn -0.9112307429 -0.4082486629 -0.0546948947
# mm_gid 0
g mmGroup0
f 1//1 2//2 3//3 
f 3//3 2//2 4//4 
f 5//5 1//1 6//6 
f 6//6 1//1 3//3 
f 7//7 5//5 8//8 
f 8//8 5//5 6//6 
f 2//2 7//7 4//4 
f 4//4 7//7 8//8 
f 5//5 7//7 1//1 
f 1//1 7//7 2//2 
f 8//8 6//6 4//4 
f 4//4 6//6 3//3 
f 9//9 10//10 11//11 
f 11//11 10//10 12//12 
f 13//13 9//9 14//14 
f 14//14 9//9 11//11 
f 15//15 13//13 16//16 
f 16//16 13//13 14//14 
f 10//10 15//15 12//12 
f 12//12 15//15 16//16 
f 13//13 15//15 9//9 
f 9//9 15//15 10//10 
f 16//16 14//14 12//12 
f 12//12 14//14 11//11 
f 17//17 18//18 19//19 
f 19//19 18//18 20//20 
f 21//21 17//17 22//22 
f 22//22 17//17 19//19 
f 23//23 21//21 24//24 
f 24//24 21//21 22//22 
f 18//18 23//23 20//20 
f 20//20 23//23 24//24 
f 21//21 23//23 17//17 
f 17//17 23//23 18//18 
f 24//24 22//22 20//20 
f 20//20 22//22 19//19 
f 25//25 26//26 27//27 
f 27//27 26//26 28//28 
f 29//29 25//25 30//30 
f 30//30 25//25 27//27 
f 31//31 29//29 32//32 
f 32//32 29//29 30//30 
f 26//26 31//31 28//28 
f 28//28 31//31 32//32 
f 29//29 31//31 25//25 
f 25//25 31//31 26//26 
f 32//32 30//30 28//28 
f 28//28 30//30 27//27 
f 33//33 34//34 35//35 
f 35//35 34//34 36//36 
f 37//37 33//33 38//38 
f 38//38 33//33 35//35 
f 39//39 37//37 40//40 
f 40//40 37//37 38//38 
f 34//34 39//39 36//36 
f 36//36 39//39 40//40 
f 37//37 39//39 33//33 
f 33//33 39//39 34//34 
f 40//40 38//38 36//36 
f 36//36 38//38 35//35 
