v 378.8058777 2.780927133e-08 -107.9500046
vn 0.0001718945568 -0.999979496 -0.006401984487
v 127.9000092 2.780927133e-08 -107.9500046
vn -0.002440970158 -0.9999809265 -0.005673494656
v 378.8058777 1.25 -107.9500046
vn 8.410852752e-05 0.9999223948 -0.01245733816
v 127.9000092 1.25 -107.9500046
vn -0.00487244362 0.9999841452 -0.002831229009
v 127.9000092 1.25 107.9500046
vn -0.004885700997 0.9999235868 0.01135572977
v 127.9000092 2.780928554e-08 107.9500046
vn -0.009580404498 -0.9999386072 0.00556688197
v 378.8058777 1.25 107.9500046
vn 0.009341025725 0.9374873042 0.3478941023
v 378.8058777 2.780928554e-08 107.9500046
vn 0.004008730408 -0.8046512604 0.5937342048
v 407.2999878 2.780928376e-08 79.45587921
vn 0.1821338087 -0.9832437038 0.00768688228
v 407.2999878 2.780927311e-08 -79.45587921
vn 0.5941615701 -0.8043208718 -0.006326789036
v 407.2999878 1.25 79.45587921
vn 0.5941615701 0.8043208718 0.006326789036
v 407.2999878 1.25 -79.45587921
vn 0.1821338087 0.9832437038 -0.00768688228
v 379.7839966 1.25 -104.5553055
vn 0.04888225347 0.99868083 -0.01571884379
v 403.905304 1.25 80.43400574
vn 0.0007319198921 0.999997139 0.002276086481
v 381.0691833 1.25 101.2645645
vn 0.005379711278 0.9999824166 0.002490306273
v 382.6506042 1.25 98.10548401
vn 0.005023890641 0.9999831319 0.002912121359
v 400.614563 1.25 81.7191925
vn 0.004035817459 0.9999470115 0.009468492121
v 394.4546509 1.25 -85.16493225
vn 0.008273140527 0.999897778 -0.01165932696
v 391.6373596 1.25 -87.29649353
vn 0.01007690094 0.9998801947 -0.01174953301
v 379.7839966 1.25 104.5553055
vn 0.0002213564439 1 7.873570576e-05
v 384.5149231 1.25 95.10466003
vn 0.004684127402 0.9999834895 0.003323719138
v 386.6464844 1.25 92.28736115
vn 0.004353207536 0.9999835491 0.003733501304
v 389.0273132 1.25 89.67731476
vn 0.004024509341 0.9999833107 0.004149657208
v 391.6373596 1.25 87.29649353
vn 0.003691422055 0.9999827147 0.004580773879
v 394.4546509 1.25 85.16493225
vn 0.000145995582 0.9999999404 0.000219706315
v 397.4554749 1.25 83.30060577
vn 0.005057827104 0.9999432564 0.009375861846
v 403.905304 1.25 -80.43400574
vn 0.004124052357 0.9999243021 -0.01159423497
v 400.614563 1.25 -81.7191925
vn 0.005364161916 0.9999184608 -0.01158804726
v 397.4554749 1.25 -83.30060577
vn 0.006728722248 0.999909997 -0.01160815079
v 389.0273132 1.25 -89.67731476
vn 0.01226170175 0.9998540878 -0.0118919434
v 386.6464844 1.25 -92.28736115
vn 0.01502644923 0.9998137951 -0.01210907288
v 384.5149231 1.25 -95.10466003
vn 0.01872341335 0.9997472763 -0.0124417264
v 382.6506042 1.25 -98.10548401
vn 0.02404504642 0.9996266961 -0.01297118887
v 381.0691833 1.25 -101.2645645
vn 0.0325724259 0.9993729591 -0.01388359349
v 397.4554749 2.780928376e-08 83.30060577
vn 0.0001335636771 -0.9999999404 0.0002304192603
v 394.4546509 2.780928376e-08 85.16493225
vn 0.003499435959 -0.9999817014 0.004931750707
v 391.6373596 2.780928376e-08 87.29649353
vn 0.003829912515 -0.9999827147 0.004465627484
v 379.7839966 2.780927133e-08 -104.5553055
vn 0.04837812483 -0.99868083 -0.01720792614
v 403.905304 2.780928376e-08 80.43400574
vn 0.000887761882 -0.9999964833 0.002495826455
v 400.614563 2.780928376e-08 81.7191925
vn 0.004323769826 -0.9999470115 0.009340517223
v 397.4554749 2.780927311e-08 -83.30060577
vn 0.00637022499 -0.999909997 -0.01180869713
v 394.4546509 2.780927311e-08 -85.16493225
vn 0.007912326604 -0.999897778 -0.01190712955
v 391.6373596 2.780927311e-08 -87.29649353
vn 0.009712518193 -0.9998801947 -0.01205249596
v 403.905304 2.780927311e-08 -80.43400574
vn 0.002508896636 -0.9999664426 -0.007802036591
v 400.614563 2.780927311e-08 -81.7191925
vn 0.005006922409 -0.9999184608 -0.01174681634
v 389.0273132 2.780928376e-08 89.67731476
vn 0.004149653018 -0.9999833107 0.004024517722
v 386.6464844 2.780928376e-08 92.28736115
vn 0.00446545938 -0.9999835491 0.003598493291
v 384.5149231 2.780928376e-08 95.10466003
vn 0.004783676937 -0.9999834895 0.003178758314
v 382.6506042 2.780928376e-08 98.10548401
vn 0.005110681057 -0.9999831319 0.002756975591
v 381.0691833 2.780928376e-08 101.2645645
vn 0.0002150637447 -1 9.166826931e-05
v 379.7839966 2.780928554e-08 104.5553055
vn 0.007516548969 -0.9999688268 0.002417062409
v 381.0691833 2.780927311e-08 -101.2645645
vn 0.03213215247 -0.9993729591 -0.01487420034
v 382.6506042 2.780927311e-08 -98.10548401
vn 0.0236367099 -0.9996266961 -0.01370112784
v 384.5149231 2.780927311e-08 -95.10466003
vn 0.0183337722 -0.9997472763 -0.01300910674
v 386.6464844 2.780927311e-08 -92.28736115
vn 0.0146487169 -0.9998137951 -0.01256338134
v 389.0273132 2.780927311e-08 -89.67731476
vn 0.01189191826 -0.9998540878 -0.01226171385
# mm_gid 2
g mmGroup2
f 1//1 2//2 3//3 
f 3//3 2//2 4//4 
# mm_gid 3
g mmGroup3
f 5//5 4//4 6//6 
f 6//6 4//4 2//2 
# mm_gid 4
g mmGroup4
f 7//7 5//5 8//8 
f 8//8 5//5 6//6 
# mm_gid 5
g mmGroup5
f 9//9 10//10 11//11 
f 11//11 10//10 12//12 
# mm_gid 6
g mmGroup6
f 13//13 3//3 14//14 
f 15//15 16//16 4//4 
f 14//14 3//3 17//17 
f 18//18 19//19 14//14 
f 15//15 4//4 20//20 
f 20//20 4//4 5//5 
f 20//20 5//5 7//7 
f 16//16 21//21 4//4 
f 4//4 21//21 22//22 
f 4//4 22//22 23//23 
f 23//23 24//24 4//4 
f 4//4 24//24 25//25 
f 4//4 25//25 3//3 
f 3//3 25//25 26//26 
f 3//3 26//26 17//17 
f 11//11 12//12 14//14 
f 14//14 12//12 27//27 
f 27//27 28//28 14//14 
f 14//14 28//28 29//29 
f 14//14 29//29 18//18 
f 19//19 30//30 14//14 
f 14//14 30//30 31//31 
f 14//14 31//31 32//32 
f 32//32 33//33 14//14 
f 14//14 33//33 34//34 
f 14//14 34//34 13//13 
# mm_gid 7
g mmGroup7
f 1//1 35//35 2//2 
f 2//2 35//35 36//36 
f 2//2 36//36 37//37 
f 38//38 39//39 1//1 
f 1//1 39//39 40//40 
f 1//1 40//40 35//35 
f 41//41 39//39 42//42 
f 42//42 39//39 43//43 
f 10//10 9//9 44//44 
f 44//44 9//9 39//39 
f 44//44 39//39 45//45 
f 45//45 39//39 41//41 
f 37//37 46//46 2//2 
f 2//2 46//46 47//47 
f 2//2 47//47 48//48 
f 48//48 49//49 2//2 
f 2//2 49//49 50//50 
f 2//2 50//50 6//6 
f 6//6 50//50 51//51 
f 6//6 51//51 8//8 
f 38//38 52//52 39//39 
f 39//39 52//52 53//53 
f 39//39 53//53 54//54 
f 54//54 55//55 39//39 
f 39//39 55//55 56//56 
f 39//39 56//56 43//43 
# mm_gid 8
g mmGroup8
f 1//1 3//3 13//13 
f 1//1 13//13 38//38 
f 38//38 13//13 34//34 
f 38//38 34//34 52//52 
f 52//52 34//34 33//33 
f 52//52 33//33 53//53 
f 53//53 33//33 32//32 
f 53//53 32//32 54//54 
f 54//54 32//32 31//31 
f 54//54 31//31 55//55 
f 55//55 31//31 30//30 
f 55//55 30//30 56//56 
f 56//56 30//30 19//19 
f 56//56 19//19 43//43 
f 43//43 19//19 18//18 
f 43//43 18//18 42//42 
f 42//42 18//18 29//29 
f 42//42 29//29 41//41 
f 41//41 29//29 28//28 
f 41//41 28//28 45//45 
f 45//45 28//28 27//27 
f 45//45 27//27 44//44 
f 44//44 27//27 12//12 
f 44//44 12//12 10//10 
# mm_gid 9
g mmGroup9
f 9//9 11//11 14//14 
f 9//9 14//14 39//39 
f 39//39 14//14 17//17 
f 39//39 17//17 40//40 
f 40//40 17//17 26//26 
f 40//40 26//26 35//35 
f 35//35 26//26 25//25 
f 35//35 25//25 36//36 
f 36//36 25//25 24//24 
f 36//36 24//24 37//37 
f 37//37 24//24 23//23 
f 37//37 23//23 46//46 
f 46//46 23//23 22//22 
f 46//46 22//22 47//47 
f 47//47 22//22 21//21 
f 47//47 21//21 48//48 
f 48//48 21//21 16//16 
f 48//48 16//16 49//49 
f 49//49 16//16 15//15 
f 49//49 15//15 50//50 
f 50//50 15//15 20//20 
f 50//50 20//20 51//51 
f 51//51 20//20 7//7 
f 51//51 7//7 8//8 
